<svg xmlns="http://www.w3.org/2000/svg" viewBox="73.4 59.7 344.6 412.1" role="img" aria-label="Yellow Pine mark">
  <title>Yellow Pine mark</title>
  <path fill="#AC8717" d="M249.4,78.9Q270.9,40.5 286.8,81.5L342.7,226.1Q350.7,246.6 328.7,245.1L185.1,235Q163.1,233.5 173.9,214.3Z"/><path fill="#AC8717" d="M236.9,175Q263.9,140.3 285.8,178.4L413.8,401.1Q424.7,420.2 402.8,418.6L293.1,411Q283.1,410.3 282.4,420.2L279.8,457.2Q278.8,472.1 263.8,471.1L217.9,467.9Q203,466.8 204,451.9L206.6,414.9Q207.3,405 197.3,404.3L87.6,396.6Q65.6,395.1 79.1,377.7Z"/>
</svg>
